<svg xmlns="http://www.w3.org/2000/svg" fill="rgb(65, 182, 230)"><path fill-rule="evenodd" clip-rule="evenodd" d="M1 4h7.661c1.898 0 3.356.526 4.305 1.507.746.771 1.119 1.718 1.119 2.91v.035c0 1.927-.983 2.979-2.17 3.68 1.899.771 3.085 1.893 3.085 4.171v.035C15 19.458 12.56 21 8.83 21H1V4zm9.492 5.047c0-1.121-.848-1.752-2.373-1.752H4.525v3.61h3.356c1.594 0 2.61-.526 2.61-1.787v-.07zM4.525 13.99H8.73c1.864 0 2.678.7 2.678 1.857v.036c0 1.261-.983 1.857-2.576 1.857H4.525v-3.75z"/><path d="M39 21H26.105v-3.323h9.135v-3.463h-8.01v-3.323h8.046V7.323H26V4h13v17zM52 4h3.68v13.607H64V21H52V4z"/><path fill-rule="evenodd" clip-rule="evenodd" d="M72 12.5v.034C72 17.24 75.76 21 80.983 21 86.205 21 90 17.173 90 12.5v-.034C90 7.793 86.24 4 81.017 4 75.795 4 72 7.827 72 12.5zm14.1 0v.034c0 2.845-2.088 5.147-5.083 5.113-2.994 0-5.118-2.37-5.118-5.18v-.035c0-2.81 2.09-5.113 5.084-5.113 2.994 0 5.118 2.37 5.118 5.181z"/><path d="M101 4h3.43l7.898 10.459V4H116v17h-3.152l-8.141-10.809V21h-3.672V4H101zm37.18 5.317a2.67 2.67 0 00-.386-.915 1.99 1.99 0 00-.736-.677c-.28-.203-.63-.339-1.016-.44a4.86 4.86 0 00-1.227-.136c-1.331 0-2.348.44-3.049 1.355-.701.914-1.016 2.235-1.016 3.962 0 1.761.315 3.082.981 3.996.666.915 1.683 1.355 3.014 1.355.631 0 1.157-.068 1.612-.237.456-.17.842-.373 1.122-.644.28-.27.526-.575.666-.914.14-.339.21-.711.21-1.05v-.846h-3.82v-3.082H142v3.25c0 .915-.14 1.762-.421 2.575-.28.812-.7 1.523-1.296 2.133-.596.61-1.332 1.084-2.278 1.456-.912.373-1.998.542-3.295.542-1.261 0-2.383-.203-3.329-.61a6.795 6.795 0 01-2.418-1.727c-.631-.745-1.122-1.625-1.472-2.675-.316-1.05-.491-2.201-.491-3.522 0-1.287.175-2.472.491-3.488.35-1.05.841-1.93 1.507-2.675.666-.745 1.472-1.287 2.418-1.693.981-.407 2.068-.61 3.329-.61 1.017 0 1.963.135 2.769.406a6.713 6.713 0 012.138 1.152 6.275 6.275 0 011.472 1.693c.385.643.631 1.355.736 2.1h-3.68v-.034z"/></svg>
